<?xml version="1.0" encoding="UTF-8"?>
<svg xmlns="http://www.w3.org/2000/svg" viewBox="0 0 100 74.21">
  <g id="Layer_2" data-name="Layer 2">
    <g id="Layer_1-2" data-name="Layer 1">
      <path d="M0,37.9V2.76A2.75,2.75,0,0,1,2.76,0H41a2.77,2.77,0,0,1,2.77,2.77c0,17,0,28.07,0,45.46,0,13.78-7.19,22-20.61,25.11a24,24,0,0,1-4.85.58c-2.88.07-5.64.22-8.49.29A2.75,2.75,0,0,1,7,71.45V64.66a2.75,2.75,0,0,1,2.66-2.75c3.07-.11,7.79-.21,10.18-.51,0,0,1.41-.49,1.66-.61C25,59.07,28.8,52.85,28.93,49c.07-2.16,0-4.31,0-6.55a1.82,1.82,0,0,0-1.83-1.82H2.76A2.76,2.76,0,0,1,0,37.9Z"></path>
      <path d="M56.27,37.9V2.76A2.75,2.75,0,0,1,59,0h38.2A2.77,2.77,0,0,1,100,2.77c0,17,0,28.07,0,45.46,0,13.78-7.19,22-20.6,25.11a24.17,24.17,0,0,1-4.86.58c-2.88.07-5.64.22-8.49.29a2.75,2.75,0,0,1-2.82-2.76V64.66a2.75,2.75,0,0,1,2.66-2.75c3.07-.11,7.79-.21,10.18-.51,0,0,1.41-.49,1.66-.61,3.56-1.72,7.35-7.94,7.48-11.76.07-2.16,0-4.31,0-6.55a1.82,1.82,0,0,0-1.83-1.82H59A2.76,2.76,0,0,1,56.27,37.9Z"></path>
    </g>
  </g>
</svg>
